<svg viewBox="0 0 162 152" xmlns="http://www.w3.org/2000/svg" xmlns:xlink="http://www.w3.org/1999/xlink">
    <defs>
        <path id="a" d="M0 0h77.948v137.599H0z" />
        <path id="c" d="M0 149.782h163.714V0H0z" />
    </defs>
    <g fill="none" fill-rule="evenodd">
        <g transform="translate(1 1)">
            <path
                d="M30.025 8.958a1.565 1.565 0 0 1-1.563-1.567V1.433c0-.791.64-1.433 1.43-1.433h51.317c.863 0 1.563.702 1.563 1.567v5.824c0 .866-.7 1.567-1.563 1.567H30.025z"
                fill="#56BEC3" />
            <g transform="translate(0 12.183)">
                <mask id="b" fill="#fff">
                    <use xlink:href="#a" />
                </mask>
                <path
                    d="M77.948 137.599H11.805c-8.674 0-14.378-9.076-10.638-16.924l32.476-67.397V1.433c0-.791.64-1.433 1.43-1.433h41.446c.79 0 1.43.642 1.43 1.433V137.6z"
                    fill="#56BEC3" mask="url(#b)" />
            </g>
            <path
                d="M74.704 93.547v51.747H17.099c-7.554 0-12.523-7.904-9.265-14.74L27.2 90.364l.314-.65c5.466-7.065 17.662 1.12 23.37 1.12 5.707 0 19.804-7.266 23.82 2.057v.656z"
                fill="#95D5D8" />
            <path
                d="M42.32 28.497c-3.256 0-5.896-2.647-5.896-5.912 0-3.266 2.64-5.913 5.895-5.913 3.256 0 5.896 2.647 5.896 5.913 0 3.265-2.64 5.912-5.896 5.912zM69.546 28.497c-3.256 0-5.896-2.647-5.896-5.912 0-3.266 2.64-5.913 5.896-5.913s5.895 2.647 5.895 5.913c0 3.265-2.64 5.912-5.895 5.912zM42.32 72.988c-3.256 0-5.896-2.647-5.896-5.912 0-3.266 2.64-5.913 5.895-5.913 3.256 0 5.896 2.647 5.896 5.913 0 3.265-2.64 5.912-5.896 5.912zM69.546 72.988c-3.256 0-5.896-2.647-5.896-5.912 0-3.266 2.64-5.913 5.896-5.913s5.895 2.647 5.895 5.913c0 3.265-2.64 5.912-5.895 5.912z"
                fill="#262C2C" />
            <path
                d="M44.82 31.51l22.59 37.126c1.317 2.163 4.637 1.227 4.637-1.307V22.585a2.505 2.505 0 0 0-2.501-2.509 2.505 2.505 0 0 0-2.501 2.509v35.818l-22.59-37.125c-1.317-2.163-4.637-1.227-4.637 1.307v44.744a2.505 2.505 0 0 0 2.501 2.508 2.505 2.505 0 0 0 2.501-2.508V31.51z"
                fill="#262C2C" fill-rule="nonzero" />
            <mask id="d" fill="#fff">
                <use xlink:href="#c" />
            </mask>
            <path
                d="M91.591 29.058v14.137h7.223c3.257 0 5.705-.59 7.345-1.767 1.64-1.178 2.46-2.934 2.46-5.267 0-2.356-.803-4.129-2.408-5.319-1.605-1.19-4-1.784-7.188-1.784h-7.432zm0 31.843h2.373c1.35 0 2.303.187 2.861.56.558.374.838.992.838 1.855 0 .933-.245 1.586-.733 1.96-.489.373-1.408.56-2.757.56H82.45c-.79 0-1.395-.216-1.814-.648-.419-.431-.628-1.055-.628-1.872 0-.863.233-1.481.698-1.855.465-.373 1.233-.56 2.303-.56h3.175V29.058h-2.024c-1.744 0-2.873-.164-3.384-.49-.512-.327-.768-.945-.768-1.855 0-.793.203-1.388.61-1.785.408-.396 1.018-.594 1.832-.594h14.725c3.56 0 6.217.169 7.973.507 1.756.338 3.24.916 4.449 1.732 1.558 1.05 2.785 2.438 3.68 4.164a11.907 11.907 0 0 1 1.344 5.564c0 2.683-.82 4.987-2.46 6.911-1.64 1.925-3.925 3.26-6.856 4.007.605.35 1.146.758 1.622 1.225.477.466.937 1.026 1.379 1.68l7.013 10.777h1.152c1.302 0 2.198.181 2.686.543.489.361.733.986.733 1.872 0 .817-.204 1.44-.61 1.872-.408.432-1.007.648-1.798.648h-3.942c-1.14 0-2.257-.84-3.35-2.52a3.491 3.491 0 0 1-.314-.35l-6.7-10.183c-1.372-2.076-2.506-3.418-3.401-4.024-.896-.607-2.077-.91-3.542-.91h-4.64v13.052zm64.551 4.935h-30.46c-.838 0-1.472-.21-1.902-.63-.43-.42-.646-1.05-.646-1.89 0-.933.25-1.569.75-1.907.5-.338 1.646-.508 3.437-.508h2.233V29.373h-2.233c-1.745 0-2.879-.181-3.402-.543-.523-.361-.785-1.02-.785-1.977 0-.863.215-1.499.646-1.907.43-.408 1.087-.612 1.97-.612h30.392c.791 0 1.39.239 1.797.717.407.478.61 1.172.61 2.082v8.258c0 1.214-.174 2.053-.523 2.52-.348.467-.977.7-1.884.7-.953 0-1.61-.257-1.971-.77-.36-.513-.541-1.668-.541-3.464v-5.004h-18.563v11.792h9.142v-1.854c0-1.26.169-2.135.506-2.625.337-.49.925-.735 1.762-.735.814 0 1.378.263 1.692.788.314.525.471 1.65.471 3.377v6.508c0 1.75-.162 2.87-.488 3.36-.326.49-.907.734-1.745.734-.837 0-1.413-.28-1.727-.84-.314-.56-.471-1.644-.471-3.254V45.4h-9.142v15.502h18.563v-5.668c0-1.797.18-2.952.54-3.465.361-.513 1.019-.77 1.972-.77.884 0 1.506.24 1.867.718.36.478.54 1.382.54 2.712v8.818c0 .84-.209 1.481-.627 1.925-.419.443-1.012.665-1.78.665z"
                fill="#262C2C" fill-rule="nonzero" mask="url(#d)" />
        </g>
        <path
            d="M96.445 93.56c0-.831.083-1.369.249-1.613.165-.243.48-.365.944-.365.398 0 .696.102.895.307.2.205.299.524.299.956v6.183c0 .388-.105.69-.315.906-.21.216-.503.324-.879.324h-15.48c-.398 0-.696-.1-.895-.299-.199-.2-.298-.499-.298-.898 0-.443.119-.745.356-.905.238-.161.776-.241 1.616-.241h2.072V82.938h-2.072c-.817 0-1.35-.086-1.6-.257-.248-.172-.372-.485-.372-.94 0-.41.102-.711.307-.905.204-.194.522-.291.953-.291h8.966c.398 0 .702.1.912.299.21.2.314.499.314.898 0 .454-.124.767-.372.939-.249.171-.793.257-1.633.257h-2.784v14.977h8.817V93.56zm10.708-1.812h6.78l-3.564-8.81-3.216 8.81zm.846-8.81h-2.42c-.674 0-1.146-.091-1.417-.274-.27-.183-.406-.49-.406-.922 0-.455.119-.768.356-.94.238-.171.887-.257 1.948-.257h4.723c.608 0 1.02.08 1.235.24.215.162.411.458.588.89l6.48 16.24h.282c.597 0 1.006.083 1.227.249.22.166.331.465.331.897 0 .455-.105.768-.315.94-.21.171-.602.257-1.176.257h-4.508c-.84 0-1.379-.086-1.616-.257-.238-.172-.357-.485-.357-.94 0-.42.13-.717.39-.889.26-.172.748-.257 1.467-.257h1.541l-1.608-3.956h-8.42l-1.425 3.956h1.608c.73 0 1.227.085 1.492.257.265.172.398.468.398.89 0 .454-.12.767-.357.939-.237.171-.76.257-1.566.257h-4.359c-.707 0-1.177-.086-1.409-.257-.232-.172-.348-.485-.348-.94 0-.432.116-.73.348-.897.232-.166.68-.25 1.343-.25h.315l5.635-14.976zM127.908 97.915h3.679c2.077 0 3.541-.264 4.392-.79.85-.526 1.276-1.399 1.276-2.618 0-1.23-.406-2.105-1.218-2.626-.812-.52-2.24-.781-4.284-.781h-3.845v6.815zm0-8.86h3.463c1.57 0 2.732-.25 3.49-.748.756-.498 1.135-1.269 1.135-2.31 0-.986-.343-1.743-1.028-2.27-.685-.525-1.668-.789-2.95-.789h-4.11v6.117zm4.756 11.203h-8.85c-.387 0-.677-.1-.87-.299-.194-.2-.29-.499-.29-.898 0-.443.121-.745.364-.905.243-.161.823-.241 1.74-.241h.547V82.938h-.547c-.85 0-1.397-.086-1.64-.257-.243-.172-.365-.485-.365-.94 0-.387.1-.684.298-.889.2-.205.487-.307.862-.307h7.74c2.343 0 4.127.457 5.354 1.371 1.226.914 1.84 2.241 1.84 3.981 0 .875-.189 1.64-.564 2.294-.376.654-.934 1.191-1.674 1.612 1.193.432 2.08 1.036 2.66 1.812.58.776.87 1.762.87 2.959a5.273 5.273 0 0 1-.746 2.759c-.497.83-1.199 1.512-2.105 2.044a6.127 6.127 0 0 1-1.806.673c-.663.139-1.602.208-2.818.208zM147.236 99.676c-.056.5-.183.845-.381 1.04-.2.193-.514.29-.945.29-.464 0-.81-.136-1.036-.407-.227-.271-.356-.712-.39-1.321l-.215-3.857v-.299c0-.532.102-.909.307-1.13.204-.222.544-.333 1.019-.333.663 0 1.138.477 1.425 1.43.133.476.26.837.381 1.08.387.776.998 1.374 1.832 1.795.834.422 1.831.632 2.991.632 1.426 0 2.583-.338 3.473-1.014.89-.676 1.334-1.54 1.334-2.593 0-.875-.274-1.579-.82-2.11-.547-.533-1.346-.876-2.395-1.031l-2.453-.333c-2.288-.321-3.956-.925-5.006-1.812-1.05-.886-1.574-2.133-1.574-3.74 0-1.695.699-3.119 2.096-4.271 1.398-1.153 3.141-1.729 5.23-1.729.607 0 1.248.08 1.922.241.674.16 1.436.413 2.287.756.022-.321.11-.543.265-.664.155-.122.42-.183.796-.183.486 0 .823.072 1.011.216.188.144.304.487.348 1.03l.232 3.474V85c0 .388-.11.69-.331.906-.221.216-.53.324-.929.324-.585 0-1.038-.41-1.359-1.23-.154-.465-.309-.814-.464-1.047-.364-.554-.89-.98-1.574-1.28-.685-.299-1.464-.448-2.337-.448-1.337 0-2.423.332-3.257.997-.834.665-1.251 1.535-1.251 2.61 0 .842.312 1.507.936 1.994.624.488 1.577.82 2.86.997l2.651.333c1.923.255 3.37.845 4.342 1.77.973.925 1.459 2.175 1.459 3.748 0 1.862-.69 3.355-2.072 4.48-1.381 1.125-3.226 1.687-5.536 1.687-.795 0-1.585-.094-2.37-.283a14.172 14.172 0 0 1-2.502-.88z"
            fill="#56BEC3" fill-rule="nonzero" />
    </g>
</svg>
